<svg width="48" height="48" viewBox="0 0 48 48" fill="none" xmlns="http://www.w3.org/2000/svg">
<rect width="48" height="48" rx="16" fill="#FFC600"/>
<g clip-path="url(#clip0_2_26672)">
<path d="M15.1461 28.6288C15.0864 28.2276 15.0556 27.8174 15.0556 27.4003V26.1717H12.5V23.7147H15.0556V22.4862C15.0556 22.0691 15.0864 21.6589 15.1461 21.2576H12.5V18.8006H15.9163C16.6994 17.2157 17.9718 15.8977 19.5458 15.0269L18.2046 13.7374L20.0116 12L22.1627 14.0681C22.7557 13.949 23.3702 13.8864 24 13.8864C24.6298 13.8864 25.2443 13.949 25.8373 14.0681L27.9883 12L29.7954 13.7374L28.4542 15.0269C30.0282 15.8977 31.3006 17.2157 32.0837 18.8006H35.5V21.2576H32.8538C32.9135 21.6589 32.9444 22.0691 32.9444 22.4862V23.7147H35.5V26.1717H32.9444V27.4003C32.9444 27.8174 32.9135 28.2276 32.8538 28.6288H35.5V31.0859H32.0837C30.6482 33.9914 27.5681 36 24 36C20.4319 36 17.3519 33.9914 15.9163 31.0859H12.5V28.6288H15.1461ZM20.1667 21.2576V23.7147H27.8333V21.2576H20.1667ZM20.1667 26.1717V28.6288H27.8333V26.1717H20.1667Z" fill="#930013"/>
</g>
<defs>
<clipPath id="clip0_2_26672">
<rect width="24" height="24" fill="white" transform="translate(12 12)"/>
</clipPath>
</defs>
</svg>
